<?xml version="1.0" encoding="UTF-8" standalone="no"?><!DOCTYPE svg PUBLIC "-//W3C//DTD SVG 1.1//EN" "http://www.w3.org/Graphics/SVG/1.1/DTD/svg11.dtd"><svg width="100%" height="100%" viewBox="0 0 400 100" version="1.1" xmlns="http://www.w3.org/2000/svg" xmlns:xlink="http://www.w3.org/1999/xlink" xml:space="preserve" xmlns:serif="http://www.serif.com/" style="fill-rule:evenodd;clip-rule:evenodd;stroke-linejoin:round;stroke-miterlimit:2;"><rect id="Wordmark" x="0" y="0" width="400" height="99.994" style="fill:none;"/><g id="TN-Wordmark" serif:id="TN Wordmark"><g id="Letters"><path id="T" d="M147.777,7.802c-1.836,6.164 -3.672,12.327 -5.508,18.49l-28.164,0c-6.401,21.69 -12.801,43.38 -19.202,65.07l-23.349,0c6.401,-21.69 12.801,-43.38 19.202,-65.07l-53.232,0c1.836,-6.163 3.672,-12.326 5.508,-18.49l104.745,0Z"/><path id="A" d="M146.048,85.923c-0.431,0.215 -8.606,5.269 -17.179,5.269c-16.993,-0 -27.144,-14.014 -22.183,-31.014c4.953,-16.976 23.265,-31.014 40.284,-31.014c4.38,-0 9.893,0.646 14.45,5.269l1.365,-5.269l15.419,-0c-6.033,20.676 -12.067,41.352 -18.101,62.028l-15.419,-0l1.364,-5.269Zm4.091,-26.031c1.982,-6.79 -2.082,-12.39 -8.884,-12.39c-6.677,-0 -14.16,5.689 -16.116,12.39c-1.982,6.791 2.082,12.391 8.884,12.391c6.677,0 14.16,-5.689 16.116,-12.391Z"/><path id="L" d="M211.269,7.899c-8.107,27.821 -16.213,55.642 -24.319,83.463l-23.455,0c8.106,-27.821 16.213,-55.642 24.319,-83.463l23.455,0Z"/><path id="S" d="M218.397,92.192c-7.673,-0 -12.417,-1.897 -13.429,-2.302c-5.756,-2.302 -8.164,-5.808 -8.654,-6.522c-0.451,-0.657 -2.899,-4.22 -2.25,-9.701l0.57,-2.96l20.717,0c-0.06,0.387 -0.473,3.07 1.305,4.714c1.779,1.644 4.843,1.644 5.286,1.644c2.741,0 4.344,-0.907 4.679,-1.096c1.938,-1.096 2.113,-2.567 2.146,-2.85c0.035,-0.299 0.247,-2.083 -1.919,-3.234c-0.557,-0.296 -2.166,-1.151 -7.329,-2.904c-6.014,-1.973 -9.089,-3.467 -9.849,-3.837c-0.608,-0.295 -3.835,-1.863 -6.422,-5.481c-2.586,-3.617 -2,-8.561 -1.911,-9.317c0.102,-0.858 0.649,-5.48 4.402,-9.865c0.629,-0.735 3.753,-4.385 9.964,-6.851c1.056,-0.419 6.211,-2.466 13.994,-2.466c1.148,-0 8.33,-0 14.083,2.795c5.753,2.795 7.785,6.92 8.183,7.728c0.391,0.793 2.43,4.932 1.388,10.961l-19.293,0c0.06,-0.38 0.461,-2.959 -1.202,-4.658c-1.662,-1.699 -4.734,-1.699 -5.17,-1.699c-2.521,-0 -3.993,0.909 -4.295,1.096c-1.774,1.096 -1.949,2.574 -1.981,2.85c-0.247,2.082 1.698,3.141 1.967,3.288c0.575,0.313 2.214,1.206 7.584,3.069c5.904,1.973 9.032,3.518 9.788,3.892c3.883,1.918 6.035,4.831 6.434,5.371c2.551,3.452 1.999,8.106 1.915,8.824c-0.591,4.983 -3.189,10.389 -9.586,14.304c-8.509,5.207 -19.375,5.207 -21.115,5.207Z"/><path id="O" d="M293.301,30.164c14.516,-0 27.533,10.96 21.882,31.014c-5.278,18.732 -24.456,31.013 -39.961,31.013c-17.078,-0 -27.151,-14.063 -22.205,-31.013c4.954,-16.976 23.265,-31.014 40.284,-31.014Zm-5.715,18.338c-6.677,-0 -14.16,5.689 -16.116,12.39c-1.981,6.791 2.082,12.391 8.884,12.391c6.677,0 14.161,-5.689 16.116,-12.391c1.982,-6.79 -2.081,-12.39 -8.884,-12.39Z"/><path id="N" d="M366.693,90.424l-17.178,0c-4.166,-11.452 -8.333,-22.904 -12.499,-34.356c-3.391,11.452 -6.781,22.904 -10.172,34.356l-17.178,0c6.059,-20.491 12.119,-40.983 18.179,-61.474l17.09,-0c4.179,11.597 8.357,23.195 12.536,34.792c3.407,-11.597 6.815,-23.195 10.223,-34.792l17.091,-0c-6.031,20.491 -12.061,40.983 -18.092,61.474Z"/></g><g id="Stripes"><path id="Dark-Stripe" serif:id="Dark Stripe" d="M72.394,27.95l15.456,-0c-6.34,21.081 -12.679,42.161 -19.018,63.242l-15.456,-0c6.339,-21.081 12.679,-42.161 19.018,-63.242Z" style="fill:url(#_Linear1);"/><path id="Mid-Stripe" serif:id="Mid Stripe" d="M54.975,27.95l15.382,-0c-6.339,21.081 -12.678,42.161 -19.018,63.242l-15.382,-0c6.34,-21.081 12.679,-42.161 19.018,-63.242Z" style="fill:url(#_Linear2);"/><path id="Light-Stripe" serif:id="Light Stripe" d="M38.112,27.95l14.753,-0c-6.339,21.081 -12.679,42.161 -19.018,63.242l-14.754,-0c6.34,-21.081 12.679,-42.161 19.019,-63.242Z" style="fill:url(#_Linear3);"/></g></g><defs><linearGradient id="_Linear1" x1="0" y1="0" x2="1" y2="0" gradientUnits="userSpaceOnUse" gradientTransform="matrix(62.0751,0,0,63.2419,52.4168,59.5708)"><stop offset="0" style="stop-color:#595959;stop-opacity:1"/><stop offset="0.15" style="stop-color:#373737;stop-opacity:1"/><stop offset="0.33" style="stop-color:#1c1c1c;stop-opacity:1"/><stop offset="1" style="stop-color:#131313;stop-opacity:1"/></linearGradient><linearGradient id="_Linear2" x1="0" y1="0" x2="1" y2="0" gradientUnits="userSpaceOnUse" gradientTransform="matrix(62.0751,0,0,63.2419,34.9243,59.5708)"><stop offset="0" style="stop-color:#8d8d8d;stop-opacity:1"/><stop offset="0.33" style="stop-color:#606060;stop-opacity:1"/><stop offset="1" style="stop-color:#595959;stop-opacity:1"/></linearGradient><linearGradient id="_Linear3" x1="0" y1="0" x2="1" y2="0" gradientUnits="userSpaceOnUse" gradientTransform="matrix(62.0751,0,0,63.2419,17.4318,59.5708)"><stop offset="0" style="stop-color:#fff;stop-opacity:0"/><stop offset="0.15" style="stop-color:#c8c8c8;stop-opacity:0.48"/><stop offset="0.33" style="stop-color:#9c9c9c;stop-opacity:0.87"/><stop offset="1" style="stop-color:#8d8d8d;stop-opacity:1"/></linearGradient></defs></svg>